<svg xmlns="http://www.w3.org/2000/svg" xmlns:svg="http://www.w3.org/2000/svg" xmlns:xlink="http://www.w3.org/1999/xlink" version="1.0" height="430pt" width="840pt" viewBox="245 57.00000000000001 848 436" ><defs><style type="text/css">
            @font-face {
                font-family: 'lt_regular';
                src: url('https://app.creately.com/diagram/assets/fonts/lato/lt-regular-webfont.woff2') format('woff2'),
                    url('https://app.creately.com/diagram/assets/fonts/lato/lt-regular-webfont.woff') format('woff');
                font-weight: normal;
                font-style: normal;
            }
            @font-face {
                font-family: 'noto_regular';
                src: url('https://app.creately.com/diagram/assets/fonts/noto/noto-regular.woff') format('woff'),
                     url('https://app.creately.com/diagram/assets/fonts/noto/noto-regular.woff2') format('woff2');
                font-weight: normal;
                font-style: normal;
            }
        p {
            margin: 0;
        }
        </style></defs><defs><style>
            span{ display: inline-block; }
        </style></defs><g id="KeRU8vpqhHo"><g transform="translate(250 190)"><ellipse cx="46" cy="14.999999999999991" rx="23" ry="14.999999999999991" fill="rgb(245,196,87)" stroke="#f5c457" stroke-width="2" stroke-linecap="round" stroke-linejoin="round"/><path d="M 46,29.999999999999982 L 46,71.99999999999996 L 92,119.99999999999993 M 46,71.99999999999996 L 0,119.99999999999993 M 4.6000000000000005,44.99999999999997 L 87.4,44.99999999999997" fill="none" stroke="#f5c457" stroke-width="2" stroke-linecap="round" stroke-linejoin="round"/><rect x="0" y="0" width="92" height="119.99999999999993" fill="rgba(255,255,255,0.01)" stroke="rgba(255,255,255,0.01)" stroke-width="2" stroke-linecap="round" stroke-linejoin="round"/></g><g transform="translate(282.5, 319.99999999999994) rotate(0, 13.5, 0)" width="27" height="19"><text text-decoration="none" x="0" fill="#4b4b4b" font-size="10pt" font-family="lt_regular"  y="15">User</text><text text-decoration="none" x="28" fill="#4b4b4b" font-size="10pt" font-family="noto_regular"  y="15"></text></g></g><g id="gaGMOlNyzNy"><g transform="translate(840 160)"><ellipse cx="60" cy="30" rx="60" ry="30" fill="rgb(246,140,39)" stroke="#f68c27" stroke-width="2" stroke-linecap="round" stroke-linejoin="round"/></g><g transform="translate(862, 171.5) rotate(0, 38, 18.5)" width="76" height="37"><text text-decoration="none" x="1" fill="#4b4b4b" font-size="10pt" font-family="lt_regular"  y="14">Post&#160;</text><text text-decoration="none" x="30" fill="#4b4b4b" font-size="10pt" font-family="lt_regular"  y="14">warning&#160;</text><text text-decoration="none" x="13" fill="#4b4b4b" font-size="10pt" font-family="lt_regular"  y="33">message</text><text text-decoration="none" x="63" fill="#4b4b4b" font-size="10pt" font-family="noto_regular"  y="33"></text></g></g><g id="TGlKwht2Rmh"><g transform="translate(690 90)"><ellipse cx="60" cy="30" rx="60" ry="30" fill="rgb(246,140,39)" stroke="#f68c27" stroke-width="2" stroke-linecap="round" stroke-linejoin="round"/></g><g transform="translate(709.5, 110.5) rotate(0, 40.5, 9.5)" width="81" height="19"><text text-decoration="none" x="1.5" fill="#4b4b4b" font-size="10pt" font-family="lt_regular"  y="15">Upload&#160;</text><text text-decoration="none" x="44.5" fill="#4b4b4b" font-size="10pt" font-family="lt_regular"  y="15">avatar</text><text text-decoration="none" x="79.5" fill="#4b4b4b" font-size="10pt" font-family="noto_regular"  y="15"></text></g></g><g id="5pCotXc4Mpn"><g transform="translate(700 230)"><ellipse cx="60" cy="30" rx="60" ry="30" fill="rgb(246,140,39)" stroke="#f68c27" stroke-width="2" stroke-linecap="round" stroke-linejoin="round"/></g><g transform="translate(725.5, 250.5) rotate(0, 34.5, 9.5)" width="69" height="19"><text text-decoration="none" x="0" fill="#4b4b4b" font-size="10pt" font-family="lt_regular"  y="15">Verify&#160;</text><text text-decoration="none" x="39" fill="#4b4b4b" font-size="10pt" font-family="lt_regular"  y="15">email</text><text text-decoration="none" x="69" fill="#4b4b4b" font-size="10pt" font-family="noto_regular"  y="15"></text></g></g><g id="VakyCwv2k94"><g transform="translate(740 360.00000000000006)"><ellipse cx="60" cy="30" rx="60" ry="30" fill="rgb(246,140,39)" stroke="#f68c27" stroke-width="2" stroke-linecap="round" stroke-linejoin="round"/></g><g transform="translate(758.5, 371.50000000000006) rotate(0, 41.5, 18.5)" width="83" height="37"><text text-decoration="none" x="2" fill="#ffffff" font-size="10pt" font-family="lt_regular"  y="14">Add&#160;</text><text text-decoration="none" x="28" fill="#ffffff" font-size="10pt" font-family="lt_regular"  y="14">advanced&#160;</text><text text-decoration="none" x="23" fill="#ffffff" font-size="10pt" font-family="lt_regular"  y="33">details</text><text text-decoration="none" x="60" fill="#4b4b4b" font-size="10pt" font-family="noto_regular"  y="33"></text></g></g><g id="Bfbd4B1eCIC"><g transform="translate(600 430)"><ellipse cx="60" cy="30" rx="60" ry="30" fill="rgb(246,140,39)" stroke="#f68c27" stroke-width="2" stroke-linecap="round" stroke-linejoin="round"/></g><g transform="translate(628, 441.5) rotate(0, 32, 18.5)" width="64" height="37"><text text-decoration="none" x="0.5" fill="#4b4b4b" font-size="10pt" font-family="lt_regular"  y="14">Set&#160;</text><text text-decoration="none" x="22.5" fill="#4b4b4b" font-size="10pt" font-family="lt_regular"  y="14">privacy&#160;</text><text text-decoration="none" x="11" fill="#4b4b4b" font-size="10pt" font-family="lt_regular"  y="33">options</text><text text-decoration="none" x="53" fill="#4b4b4b" font-size="10pt" font-family="noto_regular"  y="33"></text></g></g><g id="Xcvt0y4A9vH"><g transform="translate(550 60.00000000000001)"><ellipse cx="60" cy="30" rx="60" ry="30" fill="rgb(246,140,39)" stroke="#f68c27" stroke-width="2" stroke-linecap="round" stroke-linejoin="round"/></g><g transform="translate(561.5, 80.5) rotate(0, 48.5, 9.5)" width="97" height="19"><text text-decoration="none" x="1.5" fill="#4b4b4b" font-size="10pt" font-family="lt_regular"  y="15">Add&#160;</text><text text-decoration="none" x="27.5" fill="#4b4b4b" font-size="10pt" font-family="lt_regular"  y="15">basic&#160;</text><text text-decoration="none" x="58.5" fill="#4b4b4b" font-size="10pt" font-family="lt_regular"  y="15">details</text><text text-decoration="none" x="95.5" fill="#4b4b4b" font-size="10pt" font-family="noto_regular"  y="15"></text></g></g><g id="kR5XKP5qoxP"><g transform="translate(420 200)"><ellipse cx="94.99999999999997" cy="55.00000000000001" rx="94.99999999999997" ry="55.00000000000001" fill="rgb(217,71,83)" stroke="#d94753" stroke-width="2" stroke-linecap="round" stroke-linejoin="round"/></g><g transform="translate(471, 245.5) rotate(0, 44, 9.5)" width="88" height="19"><text text-decoration="none" x="1" fill="#4b4b4b" font-size="10pt" font-family="lt_regular"  y="15">Create&#160;</text><text text-decoration="none" x="43" fill="#4b4b4b" font-size="10pt" font-family="lt_regular"  y="15">account</text><text text-decoration="none" x="87" fill="#4b4b4b" font-size="10pt" font-family="noto_regular"  y="15"></text></g></g><g id="buMIxBVZ86B"><mask id="e274a" x="501" y="98" width="82.20784389125777" height="116" maskUnits="userSpaceOnUse"><rect x="501" y="98" width="82.20784389125777" height="116" fill="white" /><rect x="503.1039219456288" y="143.5" width="78" height="25" fill="black" /></mask><g mask="url(#e274a)"><path d="M 569.2078438912578,112 L 515,200" fill="none" stroke="#7C7B7A" stroke-width="2" stroke-linecap="round" stroke-linejoin="round" stroke-dasharray="3 3"/><path d="M 569.2078438912578,112 L 560.0274554185459,114.51534232522704 M 569.2078438912578,112 L 571.0911706113138,121.3305712573509 Z" fill="rgb(255,255,255)" stroke="#7C7B7A" stroke-width="2" stroke-linecap="round" stroke-linejoin="round"/></g><g transform="translate(506.1039219456288, 146.5)" width="72" height="19"><text text-decoration="none" x="7" fill="rgb(84, 84, 84)" font-size="10pt" font-family="lt_regular"  y="15">&#x226A;includes&#x226B;</text><text text-decoration="none" x="65" fill="#4b4b4b" font-size="10pt" font-family="noto_regular"  y="15"></text></g></g><g id="8EWhKQXMO1g"><mask id="57640" x="565.5875805055086" y="281.33333333333337" width="194.33839615610827" height="109.66666666666669" maskUnits="userSpaceOnUse"><rect x="565.5875805055086" y="281.33333333333337" width="194.33839615610827" height="109.66666666666669" fill="white" /><rect x="623.2567785835628" y="324.16666666666674" width="79" height="24" fill="black" /></mask><g mask="url(#57640)"><path d="M 579.5875805055086,295.33333333333337 L 745.9259766616169,377.00000000000006" fill="none" stroke="#7C7B7A" stroke-width="2" stroke-linecap="round" stroke-linejoin="round" stroke-dasharray="3 3"/><path d="M 579.5875805055086,295.33333333333337 L 582.968678510298,304.23134748284946 M 579.5875805055086,295.33333333333337 L 588.6954847906114,292.56700742043256 Z" fill="rgb(255,255,255)" stroke="#7C7B7A" stroke-width="2" stroke-linecap="round" stroke-linejoin="round"/></g><g transform="translate(626.2567785835628, 327.16666666666674)" width="73" height="18"><text text-decoration="none" x="3.5" fill="rgb(84, 84, 84)" font-size="10pt" font-family="noto_regular"  y="15">&#x3C;&#x3C;extend&#x3E;&#x3E;</text><text text-decoration="none" x="69.5" fill="#4b4b4b" font-size="10pt" font-family="noto_regular"  y="15"></text></g></g><g id="JmVrV70b316"><mask id="de5f2" x="539" y="291.6" width="94.20784389125777" height="160.39999999999998" maskUnits="userSpaceOnUse"><rect x="539" y="291.6" width="94.20784389125777" height="160.39999999999998" fill="white" /><rect x="546.6039219456288" y="359.8" width="79" height="24" fill="black" /></mask><g mask="url(#de5f2)"><path d="M 553,305.6 L 619.2078438912578,438" fill="none" stroke="#7C7B7A" stroke-width="2" stroke-linecap="round" stroke-linejoin="round" stroke-dasharray="3 3"/><path d="M 553,305.6 L 550.300233590562,314.7278552167226 M 553,305.6 L 561.9224583812111,308.9160542755716 Z" fill="rgb(255,255,255)" stroke="#7C7B7A" stroke-width="2" stroke-linecap="round" stroke-linejoin="round"/></g><g transform="translate(549.6039219456288, 362.8)" width="73" height="18"><text text-decoration="none" x="3.5" fill="rgb(84, 84, 84)" font-size="10pt" font-family="noto_regular"  y="15">&#x3C;&#x3C;extend&#x3E;&#x3E;</text><text text-decoration="none" x="69.5" fill="#4b4b4b" font-size="10pt" font-family="noto_regular"  y="15"></text></g></g><g id="zPE0mE8oRbg"><g><path d="M 354.6639344262295,249.99999999999997 L 420,255" fill="none" stroke="#7C7B7A" stroke-width="2" stroke-linecap="round" stroke-linejoin="round"/></g></g><g id="a3Kvq4TGJpn"><mask id="2649c" x="596" y="241" width="118" height="33" maskUnits="userSpaceOnUse"><rect x="596" y="241" width="118" height="33" fill="white" /><rect x="616" y="245" width="78" height="25" fill="black" /></mask><g mask="url(#2649c)"><path d="M 700,260 L 610,255" fill="none" stroke="#7C7B7A" stroke-width="2" stroke-linecap="round" stroke-linejoin="round" stroke-dasharray="3 3"/><path d="M 700,260 L 693.4145872798424,253.12694981626308 M 700,260 L 692.693790414691,266.1012933889888 Z" fill="rgb(255,255,255)" stroke="#7C7B7A" stroke-width="2" stroke-linecap="round" stroke-linejoin="round"/></g><g transform="translate(619, 248)" width="72" height="19"><text text-decoration="none" x="7" fill="rgb(84, 84, 84)" font-size="10pt" font-family="lt_regular"  y="15">&#x226A;includes&#x226B;</text><text text-decoration="none" x="65" fill="#4b4b4b" font-size="10pt" font-family="noto_regular"  y="15"></text></g></g><g id="OCc3wrQHwus"><mask id="5419f" x="786.7921561087422" y="173.83333333333337" width="67.2954243967664" height="78.16666666666663" maskUnits="userSpaceOnUse"><rect x="786.7921561087422" y="173.83333333333337" width="67.2954243967664" height="78.16666666666663" fill="white" /><rect x="780.9398683071254" y="200.91666666666669" width="79" height="24" fill="black" /></mask><g mask="url(#5419f)"><path d="M 800.7921561087422,238 L 840.0875805055086,187.83333333333337" fill="none" stroke="#7C7B7A" stroke-width="2" stroke-linecap="round" stroke-linejoin="round" stroke-dasharray="3 3"/><path d="M 800.7921561087422,238 L 810.1967044390528,236.52998291648328 M 800.7921561087422,238 L 799.9670093935011,228.51708839958388 Z" fill="rgb(255,255,255)" stroke="#7C7B7A" stroke-width="2" stroke-linecap="round" stroke-linejoin="round"/></g><g transform="translate(783.9398683071254, 203.91666666666669)" width="73" height="18"><text text-decoration="none" x="3.5" fill="rgb(84, 84, 84)" font-size="10pt" font-family="noto_regular"  y="15">&#x3C;&#x3C;extend&#x3E;&#x3E;</text><text text-decoration="none" x="69.5" fill="#4b4b4b" font-size="10pt" font-family="noto_regular"  y="15"></text></g></g><g id="d8H0diVm9eJ"><mask id="99f2a" x="539" y="119.5" width="169.5" height="98.9" maskUnits="userSpaceOnUse"><rect x="539" y="119.5" width="169.5" height="98.9" fill="white" /><rect x="584.75" y="156.45" width="78" height="25" fill="black" /></mask><g mask="url(#99f2a)"><path d="M 694.5,133.5 L 553,204.4" fill="none" stroke="#7C7B7A" stroke-width="2" stroke-linecap="round" stroke-linejoin="round" stroke-dasharray="3 3"/><path d="M 694.5,133.5 L 685.3699870757569,130.80753950332908 M 694.5,133.5 L 691.1910874548921,142.42510937141992 Z" fill="rgb(255,255,255)" stroke="#7C7B7A" stroke-width="2" stroke-linecap="round" stroke-linejoin="round"/></g><g transform="translate(587.75, 159.45)" width="72" height="19"><text text-decoration="none" x="7" fill="rgb(84, 84, 84)" font-size="10pt" font-family="lt_regular"  y="15">&#x226A;includes&#x226B;</text><text text-decoration="none" x="65" fill="#4b4b4b" font-size="10pt" font-family="noto_regular"  y="15"></text></g></g><g id="fA5Tknf1rYQ"><g transform="translate(840 230)"><rect x="0" y="0" width="250" height="100" fill="rgba(255,255,255,0.01)" stroke="rgba(255,255,255,0.01)"/></g><g transform="translate(850, 240) rotate(0, 0, 0)" width="93" height="19"><text text-decoration="none" x="0" fill="#000000" font-size="10pt" font-family="lt_regular"  y="15">Email&#160;</text><text text-decoration="none" x="34" fill="#000000" font-size="10pt" font-family="lt_regular"  y="15">unverified</text><text text-decoration="none" x="91" fill="#4b4b4b" font-size="10pt" font-family="noto_regular"  y="15"></text></g></g></svg>